<svg xmlns="http://www.w3.org/2000/svg" version="1.1" xmlns:xlink="http://www.w3.org/1999/xlink" xmlns:svgjs="http://svgjs.com/svgjs" width="100" height="100"><svg width="100" height="100" viewBox="0 0 100 100" fill="none" xmlns="http://www.w3.org/2000/svg">
<path d="M89.899 15.0746H74.0741L64.9832 5H35.0168L25.9259 15.0746H10.101C4.71381 15.0746 0 19.4403 0 25.1493V84.9254C0 90.2985 4.3771 95 10.101 95H89.899C95.2862 95 100 90.6343 100 84.9254V24.8134C100 19.4403 95.6229 15.0746 89.899 15.0746ZM89.899 84.5896H10.4377V24.8134H30.6397L39.7306 14.7388H60.9428L69.697 24.8134H89.899V84.5896ZM50.1683 29.8507C36.3636 29.8507 25.2525 40.9328 25.2525 54.7015C25.2525 68.4701 36.3636 79.5522 50.1683 79.5522C63.973 79.5522 75.0842 68.4701 75.0842 54.7015C75.0842 40.9328 63.973 29.8507 50.1683 29.8507ZM50.1683 69.8134C42.0875 69.8134 35.3535 63.097 35.3535 55.0373C35.3535 46.9776 42.0875 40.2612 50.1683 40.2612C58.2491 40.2612 64.9832 46.9776 64.9832 55.0373C64.9832 63.097 58.2491 69.8134 50.1683 69.8134Z" fill="#911C1C"></path>
</svg><style>@media (prefers-color-scheme: light) { :root { filter: none; } }
</style></svg>